<?xml version="1.0" encoding="utf-8"?>
<!-- Generator: Adobe Illustrator 16.0.0, SVG Export Plug-In . SVG Version: 6.00 Build 0)  -->
<!DOCTYPE svg PUBLIC "-//W3C//DTD SVG 1.1//EN" "http://www.w3.org/Graphics/SVG/1.1/DTD/svg11.dtd">
<svg version="1.1" id="Layer_1" xmlns="http://www.w3.org/2000/svg" xmlns:xlink="http://www.w3.org/1999/xlink" x="0px" y="0px"
	 width="792px" height="612px" viewBox="0 0 792 612" enable-background="new 0 0 792 612" xml:space="preserve">
<g>
	<g>
		<path fill="#1F1C7A" d="M580.824,194.004c-14.076,0-25.092,11.016-25.092,25.092v84.456c5.508,2.448,10.403,7.345,13.464,13.464
			c2.447,4.896,3.672,11.017,3.06,15.912c-0.612,3.061-1.224,5.508-1.836,7.956c-2.448,6.12-7.344,11.628-13.464,14.688l0,0l0,0
			l-63.036,31.824c-1.224,0.611-3.06,1.224-4.284,1.224c-3.672,0-6.731-1.836-8.567-5.508c-2.448-4.896-0.612-10.404,4.283-12.853
			l38.557-19.584l24.479-12.24c4.896-2.447,6.732-8.567,4.284-13.464c-2.448-4.896-8.568-6.731-13.464-4.284l-24.48,12.24
			l-71.604,36.108c-14.076,6.731-21.42,22.032-18.972,36.72c-0.612,1.836-0.612,3.672-0.612,5.508v85.681
			c0,18.972,15.3,34.884,34.884,34.884c18.972,0,34.884-15.3,34.884-34.884v-75.276l92.412-46.512
			c7.956-4.284,14.076-11.017,17.137-18.973c1.836-3.672,3.06-7.956,3.06-12.239V219.096
			C605.916,205.02,594.9,194.004,580.824,194.004z"/>
		<path fill="#1F1C7A" d="M368.46,411.876c0-1.836,0-3.672-0.612-5.508c2.448-14.688-4.896-29.988-18.972-36.72l-71.604-36.108
			l-24.48-12.24c-4.896-2.448-11.016-0.612-13.464,4.284c-2.448,4.896-0.612,11.016,4.284,13.464l24.48,12.24l38.556,19.584
			c4.896,2.448,6.732,7.956,4.284,12.852c-1.836,3.673-4.896,5.509-8.568,5.509c-1.224,0-3.06-0.612-4.284-1.225l-63.036-31.824l0,0
			l0,0c-6.12-3.06-11.016-8.567-13.464-14.688c-1.224-2.448-1.836-5.508-1.836-7.956c-0.612-5.508,0.612-11.016,3.06-15.912
			c3.06-6.12,7.956-10.404,13.464-13.464v-85.068c0-14.076-11.016-25.092-25.092-25.092c-14.076,0-25.092,11.016-25.092,25.092
			v125.459c0,4.284,1.224,8.568,3.06,12.24c3.06,7.956,8.568,14.688,17.136,18.972l93.024,46.513v75.888
			c0,18.972,15.3,34.884,34.884,34.884c18.972,0,34.884-15.3,34.884-34.884l0,0v-86.292H368.46z"/>
	</g>
	<g>
		<path fill="#BA0D32" d="M478.008,124.848c-1.836-7.344-4.284-14.688-7.344-21.42c11.016,7.956,20.808,17.748,28.764,28.764
			C492.084,129.744,484.74,127.296,478.008,124.848z"/>
		<path fill="#BA0D32" d="M344.592,89.964c13.464-6.12,28.152-9.792,43.452-10.404v34.272c-18.36,0.612-37.332,2.448-55.08,6.732
			C336.024,110.16,339.696,100.368,344.592,89.964z"/>
		<path fill="#BA0D32" d="M459.648,120.564c-18.36-4.284-36.721-6.12-55.08-6.732V79.56c15.3,1.224,29.987,4.896,43.451,10.404
			C452.304,100.368,455.976,110.16,459.648,120.564z"/>
		<path fill="#BA0D32" d="M313.992,124.848c-7.344,1.836-14.688,4.284-21.42,7.344c7.956-11.016,17.748-20.808,28.764-28.764
			C318.888,110.772,316.44,117.504,313.992,124.848z"/>
		<path fill="#BA0D32" d="M279.108,155.448c9.792-4.284,20.196-8.568,30.6-11.628c-4.284,18.36-6.12,36.72-6.732,55.08h-34.272
			C269.928,183.6,273.6,168.912,279.108,155.448z"/>
		<path fill="#BA0D32" d="M388.044,129.744v68.544h-69.156c0.612-20.196,3.672-40.392,8.568-60.588
			C347.04,133.416,367.848,130.356,388.044,129.744z"/>
		<path fill="#BA0D32" d="M388.044,283.968c-20.196-0.612-40.392-3.672-60.588-8.568c-4.896-19.584-7.956-40.392-8.568-60.588
			h68.544v69.156H388.044z"/>
		<path fill="#BA0D32" d="M309.708,270.504c-10.404-3.06-20.196-7.344-29.988-11.628c-6.12-13.464-9.792-28.152-10.404-43.452
			h34.272C303.588,233.784,305.424,252.144,309.708,270.504z"/>
		<path fill="#BA0D32" d="M313.992,288.864c1.836,7.344,4.284,14.688,7.344,21.42c-11.016-7.956-20.808-17.748-28.764-28.764
			C299.916,283.968,307.26,286.416,313.992,288.864z"/>
		<path fill="#BA0D32" d="M332.352,293.148c18.36,4.284,36.72,6.12,55.08,6.732v34.272c-15.3-1.225-29.988-4.896-43.452-10.404
			C339.696,313.344,336.024,303.552,332.352,293.148z"/>
		<path fill="#BA0D32" d="M459.648,293.148c-3.061,10.404-7.345,20.196-11.629,29.988c-13.464,6.12-28.151,9.792-43.451,10.404
			v-33.66C422.928,299.268,441.288,297.432,459.648,293.148z"/>
		<path fill="#BA0D32" d="M464.544,275.4c-19.584,4.896-40.392,7.956-60.588,8.568v-69.156H472.5
			C472.5,235.008,469.44,255.204,464.544,275.4z"/>
		<path fill="#BA0D32" d="M478.008,288.864c7.344-1.836,14.688-4.284,21.42-7.344c-7.956,11.016-17.748,20.808-28.764,28.764
			C473.112,302.94,475.56,295.596,478.008,288.864z"/>
		<path fill="#BA0D32" d="M523.296,214.812c-1.224,15.3-4.896,29.988-10.404,43.452c-9.792,4.284-20.195,8.568-29.987,11.628
			c4.283-18.36,6.12-36.72,6.731-55.08H523.296z"/>
		<path fill="#BA0D32" d="M464.544,138.312c4.896,19.584,7.956,40.392,8.568,60.588h-69.156v-69.156
			C424.152,130.356,444.96,133.416,464.544,138.312z"/>
		<path fill="#BA0D32" d="M523.296,198.9h-34.271c-0.612-18.36-2.448-37.332-6.732-55.08c10.404,3.06,20.196,7.344,29.988,11.628
			C518.4,168.912,522.072,183.6,523.296,198.9z"/>
	</g>
</g>
</svg>
