<?xml version="1.0" encoding="utf-8"?>
<!-- Generator: Adobe Illustrator 16.0.0, SVG Export Plug-In . SVG Version: 6.00 Build 0)  -->
<!DOCTYPE svg PUBLIC "-//W3C//DTD SVG 1.1//EN" "http://www.w3.org/Graphics/SVG/1.1/DTD/svg11.dtd">
<svg version="1.1" id="Layer_1" xmlns="http://www.w3.org/2000/svg" xmlns:xlink="http://www.w3.org/1999/xlink" x="0px" y="0px"
	 width="100.062px" height="100.062px" viewBox="255.969 345.969 100.062 100.062"
	 enable-background="new 255.969 345.969 100.062 100.062" xml:space="preserve">
<g>
	<path fill-rule="evenodd" clip-rule="evenodd" fill="#AD2938" d="M295.137,349.004c1.013,0.493,1.639,1.329,2.175,2.295
		c1.245,2.239,2.566,4.436,3.813,6.673c0.304,0.545,0.644,0.614,1.225,0.588c1.259-0.056,1.948-0.554,2.552-1.755
		c2.818-5.602,9.152-8.386,15.269-6.884c1.728,0.425,2.533,1.854,2.051,3.697c-0.705,2.68-1.401,5.363-2.169,8.024
		c-0.195,0.676-0.089,1.083,0.488,1.427c0.259,0.153,0.502,0.342,0.716,0.55c0.444,0.431,0.875,0.452,1.464,0.228
		c6.096-2.323,12.952,0.007,16.349,5.526c1.046,1.698,0.688,3.196-1.046,4.21c-2.422,1.416-4.847,2.82-7.291,4.193
		c-0.525,0.295-0.656,0.605-0.636,1.208c0.046,1.309,0.608,1.995,1.815,2.607c5.575,2.826,8.386,9.272,6.826,15.298
		c-0.436,1.688-1.847,2.48-3.645,2.01c-2.71-0.71-5.419-1.427-8.114-2.188c-0.622-0.177-1.029-0.114-1.351,0.458
		c-0.147,0.262-0.337,0.507-0.55,0.716c-0.472,0.465-0.478,0.927-0.242,1.542c2.316,6.064-0.039,12.928-5.575,16.333
		c-1.646,1.012-3.169,0.654-4.152-1.023c-1.418-2.418-2.825-4.843-4.192-7.29c-0.312-0.556-0.641-0.708-1.274-0.672
		c-1.25,0.069-1.945,0.559-2.546,1.759c-2.812,5.598-9.199,8.406-15.27,6.887c-1.728-0.434-2.531-1.86-2.048-3.703
		c0.705-2.68,1.401-5.362,2.17-8.023c0.196-0.68,0.078-1.081-0.494-1.424c-0.256-0.155-0.505-0.341-0.715-0.553
		c-0.443-0.442-0.879-0.442-1.462-0.222c-6.074,2.326-12.924-0.006-16.349-5.533c-1.047-1.69-0.683-3.199,1.049-4.209
		c2.42-1.413,4.846-2.818,7.29-4.191c0.523-0.294,0.653-0.606,0.634-1.208c-0.041-1.312-0.614-1.997-1.816-2.606
		c-5.568-2.821-8.394-9.299-6.825-15.3c0.445-1.704,1.88-2.477,3.738-1.987c2.68,0.706,5.362,1.404,8.026,2.166
		c0.638,0.182,1.024,0.083,1.351-0.468c0.168-0.283,0.375-0.553,0.606-0.787c0.418-0.423,0.416-0.833,0.205-1.385
		c-2.329-6.11-0.039-12.915,5.488-16.361c0.379-0.237,0.795-0.415,1.194-0.621C294.292,349.004,294.714,349.004,295.137,349.004z
		 M306.019,379.958c0.34-0.467,0.548-0.76,0.762-1.048c1.373-1.835,2.775-3.648,4.104-5.511c0.927-1.297,0.647-2.873-0.567-3.769
		c-1.181-0.87-2.786-0.711-3.717,0.506c-2.762,3.617-5.52,7.24-8.182,10.929c-1.373,1.903-0.119,4.229,2.241,4.311
		c1.506,0.053,3.015,0.009,4.522,0.016c0.217,0.001,0.434,0.045,0.75,0.08c-1.591,2.122-3.104,4.146-4.626,6.165
		c-0.549,0.729-0.892,1.514-0.672,2.441c0.268,1.129,0.987,1.86,2.122,2.101c1.19,0.249,2.116-0.245,2.825-1.188
		c2.59-3.446,5.171-6.896,7.763-10.34c0.741-0.983,1.094-2.026,0.489-3.19c-0.595-1.15-1.613-1.53-2.859-1.509
		C309.384,379.979,307.795,379.958,306.019,379.958z"/>
	<path fill-rule="evenodd" clip-rule="evenodd" fill="#2B2B63" d="M259.651,421.787c0.72-1.564,1.938-2.087,3.64-2.007
		c3.446,0.167,6.74,0.836,9.848,2.375c2.427,1.204,4.851,2.43,7.589,2.804c4.175,0.569,8.236,0.293,12.075-1.63
		c2.886-1.447,5.789-2.841,9.048-3.251c5.122-0.644,10.096-0.283,14.819,2.032c2.402,1.177,4.771,2.463,7.483,2.831
		c4.14,0.563,8.179,0.322,11.995-1.566c2.977-1.474,5.97-2.896,9.32-3.293c1.075-0.128,2.164-0.155,3.24-0.283
		c1.698-0.199,2.919,0.422,3.64,1.988c0,5.975,0,11.949,0,17.925c-0.474,0.937-1.146,1.658-2.173,1.991c-29.45,0-58.901,0-88.353,0
		c-1.026-0.333-1.699-1.055-2.172-1.991C259.651,433.736,259.651,427.762,259.651,421.787z"/>
</g>
</svg>
