<?xml version="1.0" encoding="utf-8"?>
<!-- Generator: Adobe Illustrator 16.0.0, SVG Export Plug-In . SVG Version: 6.00 Build 0)  -->
<!DOCTYPE svg PUBLIC "-//W3C//DTD SVG 1.1//EN" "http://www.w3.org/Graphics/SVG/1.1/DTD/svg11.dtd">
<svg version="1.1" id="Layer_1" xmlns="http://www.w3.org/2000/svg" xmlns:xlink="http://www.w3.org/1999/xlink" x="0px" y="0px"
	 width="100.062px" height="100.062px" viewBox="0 0 100.062 100.062" enable-background="new 0 0 100.062 100.062"
	 xml:space="preserve">
<path fill="#2B2B63" d="M36.972,97.062c-2.262-0.691-3.602-2.562-5.135-4.14c-0.905-0.93-1.811-1.383-3.118-1.295
	c-1.584,0.105-3.183,0.035-4.773,0.023c-4.13-0.033-6.334-3.404-4.691-7.18c2.498-5.746,5.003-11.488,7.505-17.232
	c0.107-0.25,0.21-0.502,0.333-0.797c-0.186-0.131-0.345-0.264-0.521-0.367c-2.254-1.299-3.755-3.199-4.469-5.695
	c-0.418-1.463-1.187-2.666-2.377-3.614c-2.812-2.238-4.02-5.172-3.665-8.729c0.158-1.583-0.159-3.01-0.906-4.409
	c-1.615-3.025-1.625-6.104-0.01-9.133c0.747-1.398,1.073-2.826,0.914-4.408c-0.365-3.636,0.907-6.597,3.79-8.855
	c1.125-0.881,1.823-2.04,2.22-3.398c1.018-3.483,3.288-5.72,6.757-6.736c1.431-0.419,2.576-1.212,3.514-2.368
	c2.304-2.841,5.28-3.986,8.928-3.637c1.024,0.099,2.131-0.128,3.132-0.432c1.477-0.447,2.892-1.097,4.333-1.661
	c0.857,0,1.715,0,2.572,0c1.439,0.564,2.854,1.221,4.33,1.66c1.03,0.309,2.167,0.524,3.224,0.428
	c3.501-0.321,6.415,0.729,8.653,3.429c1.1,1.324,2.396,2.204,4.036,2.704c3.223,0.98,5.348,3.145,6.333,6.347
	c0.497,1.613,1.337,2.9,2.645,3.967c2.483,2.031,3.724,4.7,3.468,7.906c-0.159,1.999,0.208,3.766,1.119,5.553
	c1.406,2.762,1.326,5.641-0.107,8.382c-0.825,1.579-1.173,3.162-1.02,4.937c0.3,3.455-1.007,6.228-3.642,8.492
	c-0.894,0.768-1.783,1.807-2.127,2.895c-0.92,2.924-2.479,5.223-5.281,6.68c0.123,0.312,0.224,0.592,0.342,0.863
	c2.516,5.77,5.04,11.537,7.547,17.312c1.294,2.979,0.005,6.016-2.925,6.868c-0.577,0.168-1.205,0.213-1.812,0.224
	c-1.774,0.026-3.553,0.047-5.326-0.006c-0.857-0.025-1.521,0.176-2.096,0.85c-0.613,0.719-1.354,1.33-1.999,2.023
	c-1.026,1.104-2.135,2.079-3.604,2.551c-0.612,0-1.226,0-1.837,0c-2.096-0.576-3.237-2.049-4.082-3.98
	c-2.149-4.926-4.421-9.799-6.646-14.69c-0.13-0.285-0.283-0.562-0.484-0.957c-0.224,0.448-0.377,0.739-0.515,1.041
	c-2.222,4.893-4.49,9.768-6.638,14.692c-0.834,1.914-1.999,3.322-4.048,3.896C38.197,97.062,37.586,97.062,36.972,97.062z
	 M59.459,69.92c2.238,0.336,4.429-0.672,6.159-2.905c1.195-1.543,2.843-2.478,4.717-3.011c2.405-0.686,3.955-2.237,4.638-4.637
	c0.571-2.008,1.648-3.674,3.284-4.963c1.991-1.57,2.88-3.611,2.595-6.12c-0.244-2.145,0.172-4.131,1.2-6.011
	c1.183-2.158,1.173-4.315-0.021-6.472c-1.021-1.846-1.439-3.807-1.189-5.919c0.274-2.311-0.366-4.35-2.203-5.827
	c-1.885-1.516-3.131-3.375-3.81-5.688c-0.609-2.08-2.031-3.503-4.098-4.115c-2.313-0.688-4.174-1.917-5.694-3.796
	c-1.449-1.79-3.425-2.52-5.722-2.229c-2.075,0.263-4.033-0.079-5.848-1.094c-2.311-1.294-4.566-1.312-6.881-0.005
	c-1.722,0.971-3.606,1.382-5.574,1.123c-2.601-0.344-4.684,0.481-6.308,2.528c-1.271,1.604-2.883,2.719-4.862,3.275
	c-2.506,0.704-4.108,2.296-4.813,4.811c-0.545,1.943-1.61,3.568-3.207,4.803c-2.107,1.63-2.937,3.758-2.629,6.369
	c0.229,1.945-0.114,3.794-1.07,5.491c-1.336,2.372-1.323,4.686,0.008,7.053c0.952,1.697,1.305,3.546,1.068,5.49
	c-0.312,2.577,0.491,4.691,2.557,6.31c1.64,1.287,2.729,2.947,3.299,4.955c0.69,2.437,2.257,3.994,4.702,4.687
	c1.875,0.528,3.51,1.494,4.701,3.039c1.711,2.215,3.887,3.133,6.657,2.813c2.001-0.229,3.884,0.222,5.649,1.207
	c2.147,1.197,4.323,1.199,6.475,0.008C55.003,70.113,56.873,69.681,59.459,69.92z M30.163,67.367
	c-0.254,0.539-0.391,0.812-0.512,1.09c-2.493,5.715-4.983,11.433-7.475,17.148c-0.806,1.848-0.119,2.912,1.896,2.924
	c1.99,0.01,3.98,0.014,5.972-0.002c1.2-0.01,2.2,0.397,3.042,1.26c1.069,1.094,2.164,2.166,3.249,3.246
	c1.404,1.396,2.565,1.184,3.394-0.635c2.56-5.619,5.114-11.24,7.668-16.863c0.095-0.209,0.164-0.432,0.238-0.631
	c-0.769-0.34-1.494-0.592-2.151-0.965c-1.439-0.818-2.961-1.084-4.596-0.924c-3.463,0.336-6.276-0.89-8.516-3.548
	C31.757,68.736,30.981,68.136,30.163,67.367z M52.421,74.91c0.009,0.066,0.002,0.133,0.025,0.184
	c2.668,5.871,5.328,11.746,8.015,17.609c0.651,1.42,1.9,1.621,3.03,0.523c1.12-1.086,2.238-2.179,3.313-3.312
	c0.947-0.998,2.074-1.438,3.442-1.416c1.897,0.033,3.796,0.017,5.694,0.006c2.023-0.01,2.716-1.063,1.913-2.907
	c-2.489-5.718-4.98-11.433-7.475-17.146c-0.129-0.297-0.281-0.582-0.487-1.006c-0.618,0.498-1.171,0.92-1.693,1.377
	c-0.251,0.219-0.445,0.502-0.663,0.76c-2.125,2.511-4.825,3.681-8.107,3.447c-1.387-0.098-2.75-0.141-4.047,0.49
	C54.425,73.986,53.455,74.426,52.421,74.91z"/>
<path fill="#AD2938" d="M49.96,65.689c-14.98-0.117-26.71-12.092-26.582-27.135C23.5,24.13,35.655,12.28,50.215,12.392
	c14.833,0.114,26.587,12.207,26.441,27.205C76.518,53.961,64.401,65.804,49.96,65.689z M49.992,62.556
	c13.042-0.015,23.544-10.511,23.538-23.521C73.524,26.091,62.933,15.49,50.043,15.527c-13.054,0.038-23.565,10.596-23.541,23.646
	C26.525,52.059,37.085,62.57,49.992,62.556z"/>
<path fill="#2B2B63" d="M43.785,41.8c2.712-2.719,5.391-5.404,8.07-8.089c1.362-1.365,2.715-2.742,4.093-4.092
	c2.027-1.983,4.973-2.034,6.814-0.141c1.841,1.894,1.756,4.85-0.23,6.842c-5.08,5.097-10.168,10.185-15.264,15.264
	c-2.092,2.085-4.917,2.081-7.028,0.016c-0.939-0.921-1.867-1.857-2.789-2.796c-1.879-1.913-2.056-4.545-0.444-6.468
	c1.617-1.931,4.221-2.238,6.441-0.761C43.524,41.627,43.601,41.677,43.785,41.8z M43.808,50.183c0.506-0.355,1.048-0.632,1.46-1.042
	c4.943-4.915,9.87-9.849,14.799-14.78c0.216-0.215,0.443-0.427,0.619-0.674c0.491-0.688,0.399-1.533-0.196-2.075
	c-0.548-0.499-1.411-0.53-2.022-0.051c-0.238,0.188-0.445,0.417-0.662,0.633c-4.001,3.999-8.001,7.999-12.001,11.999
	c-1.894,1.893-2.02,1.896-3.991,0.121c-0.756-0.681-1.665-0.716-2.294-0.089c-0.634,0.632-0.622,1.565,0.083,2.294
	c0.977,1.012,1.969,2.01,2.993,2.974C42.886,49.769,43.31,49.907,43.808,50.183z"/>
</svg>
