<?xml version="1.0" encoding="utf-8"?>
<!-- Generator: Adobe Illustrator 24.3.0, SVG Export Plug-In . SVG Version: 6.00 Build 0)  -->
<svg version="1.1" id="Layer_1" xmlns="http://www.w3.org/2000/svg" xmlns:xlink="http://www.w3.org/1999/xlink" x="0px" y="0px"
	 viewBox="0 0 100 100" style="enable-background:new 0 0 100 100;" xml:space="preserve">
<style type="text/css">
	.st0{fill:#FAC312;}
	.st1{fill:#545758;}
</style>
<g>
	<path class="st0" d="M37,53.9v12l13.6,5l12.9-5v-12c-3.7,3-8.2,5-13.2,5C45.2,58.8,40.7,56.8,37,53.9z"/>
	<path class="st1" d="M66.3,57.6v8.5l-15.8,7.3L34,66.2v-8.5c-11.2,4.4-19.2,15.3-19.2,28v7.7h70.8v-7.7
		C85.5,72.9,77.5,62,66.3,57.6z M44.8,90.8l5.4-15.4l5.7,15.4H44.8z M74.6,83H58.6v-4.2h15.9V83z"/>
	<path class="st1" d="M50.2,57.6c12,0,21.7-17.2,21.7-29.3c0-4.9-1.6-9.5-4.4-13.1c-4-5.4-10.2-8.7-17.3-8.7c-5,0-9.6,1.7-13.2,4.6
		l0,0l0,0c-2.1,1.6-3.9,3.6-5.2,5.9c-2.1,3.1-3.2,7.1-3.2,11.2C28.5,40.3,38.2,57.6,50.2,57.6z M56,20.2c0.9,3,10.6,10.2,12.3,11.6
		c-1.6,10.6-9.8,22.5-18.2,22.5c-7.8,0-15.7-10.7-17.8-20.7C46.3,34.6,56,20.2,56,20.2z"/>
</g>
</svg>
