<?xml version="1.0" encoding="utf-8"?>
<!-- Generator: Adobe Illustrator 16.0.0, SVG Export Plug-In . SVG Version: 6.00 Build 0)  -->
<!DOCTYPE svg PUBLIC "-//W3C//DTD SVG 1.1//EN" "http://www.w3.org/Graphics/SVG/1.1/DTD/svg11.dtd">
<svg version="1.1" id="Layer_1" xmlns="http://www.w3.org/2000/svg" xmlns:xlink="http://www.w3.org/1999/xlink" x="0px" y="0px"
	 width="100.062px" height="100.062px" viewBox="345.969 255.969 100.062 100.062"
	 enable-background="new 345.969 255.969 100.062 100.062" xml:space="preserve">
<path fill-rule="evenodd" clip-rule="evenodd" fill="#2B2B63" d="M432.434,293.899c-0.423,1.119-0.924,2.231-2.063,2.752
	c-0.847,0.387-1.79,0.586-2.71,0.774c-0.455,0.092-0.653,0.294-0.88,0.675c-0.607,1.022-0.473,1.821,0.261,2.783
	c1.583,2.077,1.348,4.135-0.497,5.99c-0.584,0.588-1.157,1.191-1.78,1.738c-1.347,1.182-3.204,1.358-4.766,0.488
	c-0.248-0.139-0.533-0.259-0.711-0.465c-0.967-1.124-1.994-0.723-3.018-0.138c-0.167,0.096-0.299,0.339-0.349,0.538
	c-0.148,0.597-0.217,1.213-0.371,1.809c-0.476,1.842-1.949,3.055-3.835,3.135c-0.994,0.042-1.993,0.043-2.986,0
	c-1.911-0.08-3.419-1.34-3.881-3.186c-0.051-0.207-0.138-0.419-0.128-0.625c0.062-1.283-0.648-1.884-1.795-2.213
	c-0.42-0.121-0.691-0.092-1.033,0.151c-0.904,0.641-1.771,1.353-2.944,1.485c-1.192,0.136-2.285-0.102-3.181-0.898
	c-0.848-0.755-1.666-1.555-2.415-2.407c-1.163-1.324-1.308-3.172-0.45-4.707c0.161-0.289,0.315-0.6,0.545-0.829
	c0.766-0.763,0.783-1.539,0.278-2.473c-0.272-0.506-0.515-0.799-1.123-0.872c-1.251-0.149-2.483-0.403-3.409-1.396
	c-0.706-0.758-1.142-1.627-1.17-2.668c-0.027-0.972-0.043-1.945-0.012-2.916c0.068-2.082,1.381-3.626,3.416-4.06
	c0.324-0.069,0.652-0.14,0.981-0.162c0.704-0.046,1.05-0.395,1.382-1.048c0.484-0.953,0.206-1.581-0.351-2.346
	c-1.643-2.259-1.443-4.236,0.535-6.215c0.536-0.537,1.06-1.089,1.628-1.59c1.418-1.252,3.322-1.416,4.947-0.456
	c0.204,0.121,0.44,0.222,0.588,0.395c0.961,1.121,1.99,0.718,3.011,0.138c0.172-0.098,0.312-0.342,0.363-0.545
	c0.124-0.48,0.175-0.979,0.273-1.465c0.354-1.739,1.38-2.865,3.086-3.368c0.082-0.024,0.151-0.093,0.226-0.141
	c1.376,0,2.752,0,4.128,0c1.44,0.441,2.639,1.193,3.169,2.683c0.221,0.617,0.336,1.281,0.426,1.934
	c0.079,0.573,0.363,0.834,0.872,1.119c0.975,0.545,1.747,0.438,2.517-0.309c0.2-0.194,0.465-0.325,0.71-0.467
	c1.548-0.899,3.43-0.784,4.771,0.383c0.854,0.744,1.664,1.555,2.406,2.411c1.165,1.344,1.286,3.235,0.373,4.769
	c-0.314,0.528-0.692,1.017-1.034,1.528c-0.09,0.134-0.246,0.321-0.208,0.425c0.225,0.622,0.419,1.28,0.787,1.812
	c0.173,0.25,0.705,0.292,1.087,0.35c1.218,0.182,2.418,0.456,3.204,1.476c0.478,0.621,0.76,1.392,1.13,2.096
	C432.434,291.147,432.434,292.523,432.434,293.899z M428.733,291.759c0-0.213,0-0.426,0-0.64c-0.001-1.015-0.031-1.045-1.046-1.219
	c-0.746-0.128-1.489-0.278-2.237-0.402c-0.824-0.137-1.353-0.591-1.654-1.375c-0.424-1.103-0.862-2.202-1.356-3.274
	c-0.377-0.82-0.323-1.548,0.195-2.27c0.483-0.674,0.935-1.372,1.435-2.033c0.358-0.473,0.31-0.839-0.122-1.229
	c-0.475-0.429-0.921-0.891-1.36-1.355c-0.342-0.36-0.673-0.366-1.064-0.083c-0.69,0.501-1.399,0.976-2.092,1.475
	c-0.72,0.519-1.447,0.584-2.269,0.207c-1.073-0.492-2.172-0.933-3.274-1.355c-0.781-0.3-1.248-0.821-1.387-1.645
	c-0.141-0.841-0.301-1.679-0.433-2.521c-0.081-0.521-0.313-0.809-0.889-0.784c-0.663,0.029-1.328,0.018-1.991,0.003
	c-0.492-0.011-0.737,0.211-0.812,0.693c-0.127,0.819-0.298,1.631-0.42,2.451c-0.135,0.907-0.608,1.494-1.477,1.82
	c-1.083,0.407-2.159,0.84-3.208,1.327c-0.82,0.38-1.547,0.327-2.269-0.194c-0.652-0.472-1.332-0.909-1.971-1.399
	c-0.479-0.368-0.87-0.386-1.292,0.084c-0.41,0.458-0.853,0.892-1.305,1.309c-0.411,0.379-0.419,0.742-0.096,1.181
	c0.491,0.667,0.945,1.363,1.431,2.035c0.52,0.719,0.595,1.445,0.216,2.268c-0.495,1.072-0.944,2.167-1.365,3.27
	c-0.3,0.786-0.821,1.247-1.643,1.388c-0.84,0.144-1.678,0.306-2.52,0.435c-0.53,0.082-0.797,0.325-0.77,0.895
	c0.031,0.662,0.017,1.328,0.001,1.991c-0.013,0.491,0.202,0.737,0.688,0.811c0.819,0.124,1.631,0.3,2.45,0.42
	c0.941,0.139,1.523,0.648,1.853,1.54c0.384,1.041,0.8,2.074,1.273,3.077c0.41,0.868,0.351,1.632-0.214,2.395
	c-0.479,0.647-0.915,1.327-1.395,1.974c-0.32,0.433-0.339,0.795,0.077,1.18c0.47,0.434,0.924,0.888,1.357,1.357
	c0.382,0.414,0.743,0.411,1.179,0.087c0.646-0.48,1.326-0.917,1.974-1.395c0.762-0.563,1.522-0.63,2.393-0.215
	c1.001,0.477,2.034,0.894,3.077,1.272c0.926,0.337,1.424,0.949,1.557,1.917c0.11,0.797,0.29,1.584,0.411,2.379
	c0.073,0.485,0.315,0.705,0.808,0.693c0.663-0.015,1.328-0.026,1.991,0.004c0.567,0.027,0.815-0.236,0.897-0.768
	c0.127-0.818,0.302-1.631,0.422-2.449c0.131-0.892,0.625-1.433,1.456-1.751c1.081-0.413,2.155-0.85,3.207-1.333
	c0.819-0.376,1.549-0.312,2.27,0.208c0.652,0.472,1.339,0.899,1.975,1.393c0.521,0.405,0.92,0.352,1.341-0.135
	c0.341-0.394,0.71-0.769,1.106-1.105c0.536-0.454,0.612-0.886,0.15-1.452c-0.434-0.531-0.773-1.138-1.199-1.676
	c-0.695-0.88-0.808-1.772-0.23-2.761c0.284-0.489,0.552-1.004,0.724-1.541c0.956-2.976,0.998-2.642,3.764-3.146
	C428.979,293.442,428.713,293.656,428.733,291.759z"/>
<path fill-rule="evenodd" clip-rule="evenodd" fill="#AD2938" d="M359.566,312.258c0.226-0.541,0.398-1.112,0.688-1.617
	c0.784-1.363,2.01-2.215,3.548-2.325c1.757-0.126,2.907-0.708,3.38-2.559c0.194-0.758,0.313-1.272-0.219-1.895
	c-0.475-0.554-0.871-1.186-1.236-1.82c-0.976-1.698-0.827-3.843,0.462-5.316c0.95-1.085,1.986-2.107,3.069-3.059
	c1.478-1.299,3.682-1.45,5.381-0.439c0.772,0.46,1.507,0.987,2.23,1.522c0.332,0.245,0.597,0.25,0.959,0.077
	c0.683-0.326,1.409-0.562,2.082-0.904c0.244-0.124,0.486-0.422,0.555-0.686c0.19-0.731,0.265-1.492,0.43-2.231
	c0.225-1.006,1.169-1.658,2.099-1.491c0.956,0.172,1.647,1.071,1.506,2.087c-0.183,1.313-0.427,2.618-0.671,3.922
	c-0.138,0.736-0.613,1.19-1.306,1.468c-1.469,0.588-2.936,1.185-4.386,1.817c-0.767,0.334-1.461,0.307-2.145-0.176
	c-0.949-0.67-1.897-1.34-2.855-1.998c-0.767-0.526-1.226-0.482-1.888,0.167c-0.66,0.648-1.316,1.3-1.961,1.963
	c-0.595,0.614-0.638,1.069-0.156,1.772c0.643,0.938,1.292,1.874,1.964,2.791c0.585,0.798,0.571,1.576,0.156,2.46
	c-0.591,1.26-1.146,2.545-1.596,3.862c-0.35,1.024-0.969,1.572-2.017,1.73c-1.077,0.163-2.149,0.359-3.219,0.565
	c-0.854,0.165-1.142,0.509-1.153,1.35c-0.012,0.948-0.011,1.897,0,2.847c0.01,0.86,0.335,1.225,1.208,1.381
	c1.096,0.195,2.191,0.395,3.29,0.574c0.931,0.152,1.5,0.65,1.831,1.557c0.501,1.375,1.07,2.729,1.683,4.059
	c0.398,0.865,0.383,1.625-0.177,2.396c-0.654,0.902-1.288,1.818-1.92,2.736c-0.54,0.783-0.507,1.218,0.142,1.884
	c0.646,0.662,1.299,1.317,1.963,1.962c0.638,0.618,1.084,0.652,1.829,0.141c0.918-0.631,1.835-1.265,2.733-1.924
	c0.793-0.582,1.567-0.598,2.458-0.18c1.304,0.609,2.639,1.166,3.993,1.654c0.932,0.336,1.45,0.908,1.601,1.875
	c0.171,1.1,0.372,2.195,0.57,3.291c0.15,0.835,0.517,1.163,1.338,1.175c0.973,0.015,1.945,0.015,2.917,0
	c0.803-0.012,1.153-0.304,1.313-1.11c0.202-1.023,0.412-2.047,0.547-3.078c0.156-1.195,0.742-1.885,1.928-2.248
	c1.236-0.379,2.433-0.924,3.595-1.499c0.955-0.472,1.784-0.481,2.647,0.167c0.87,0.655,1.773,1.268,2.673,1.885
	c0.749,0.514,1.186,0.475,1.828-0.152c0.628-0.613,1.244-1.238,1.861-1.861c0.756-0.764,0.799-1.185,0.197-2.049
	c-0.623-0.896-1.245-1.791-1.884-2.676c-0.558-0.771-0.571-1.53-0.169-2.397c0.616-1.327,1.176-2.685,1.684-4.058
	c0.321-0.87,0.861-1.384,1.767-1.539c1.073-0.184,2.144-0.395,3.221-0.557c0.392-0.06,0.815-0.088,1.195-0.004
	c0.831,0.188,1.39,0.953,1.378,1.767c-0.011,0.802-0.59,1.573-1.396,1.763c-0.76,0.178-1.532,0.312-2.306,0.42
	c-0.402,0.056-0.647,0.193-0.758,0.605c-0.103,0.387-0.204,0.809-0.434,1.121c-0.786,1.074-0.488,1.938,0.308,2.865
	c0.821,0.959,1.446,2.05,1.486,3.387c0.04,1.318-0.317,2.495-1.22,3.457c-0.875,0.934-1.765,1.861-2.723,2.707
	c-1.703,1.503-3.855,1.654-5.785,0.463c-0.665-0.41-1.312-0.856-1.925-1.34c-0.397-0.314-0.72-0.305-1.152-0.084
	c-0.588,0.302-1.203,0.568-1.834,0.76c-0.519,0.156-0.69,0.469-0.761,0.958c-0.111,0.772-0.237,1.547-0.426,2.304
	c-0.553,2.227-2.329,3.653-4.617,3.721c-1.019,0.029-2.04,0.012-3.06,0.007c-2.746-0.015-4.612-1.581-5.108-4.285
	c-0.103-0.56-0.243-1.116-0.281-1.681c-0.039-0.58-0.282-0.873-0.843-1.045c-0.652-0.201-1.255-0.56-1.905-0.772
	c-0.26-0.085-0.644-0.058-0.875,0.08c-0.771,0.462-1.473,1.04-2.245,1.499c-1.769,1.049-3.955,0.865-5.49-0.499
	c-0.991-0.88-1.938-1.819-2.824-2.806c-1.458-1.625-1.638-3.789-0.513-5.664c0.45-0.75,1.01-1.434,1.466-2.182
	c0.13-0.213,0.163-0.574,0.081-0.813c-0.253-0.737-0.55-1.464-0.899-2.16c-0.124-0.246-0.42-0.495-0.685-0.563
	c-0.731-0.191-1.49-0.273-2.232-0.428c-1.997-0.412-3.265-1.617-3.838-3.568c-0.031-0.105-0.101-0.201-0.152-0.302
	C359.566,315.578,359.566,313.918,359.566,312.258z"/>
<path fill-rule="evenodd" clip-rule="evenodd" fill="#AD2938" d="M387.253,327.125c-7.334-0.061-13.068-6.416-12.297-13.667
	c0.663-6.229,5.823-10.949,12.137-11.097c1.09-0.026,1.971,0.746,2.021,1.772c0.048,0.978-0.719,1.84-1.806,1.895
	c-2.152,0.108-4.088,0.736-5.731,2.169c-2.748,2.398-3.689,6.185-2.39,9.645c1.25,3.329,4.497,5.549,8.102,5.541
	c4.544-0.012,8.257-3.463,8.605-7.998c0.057-0.731,0.047-1.486,0.68-2.02c0.573-0.484,1.229-0.637,1.919-0.326
	c0.73,0.326,1.125,0.925,1.147,1.736c0.159,5.766-4.622,11.383-10.341,12.141C388.62,327.006,387.935,327.057,387.253,327.125z"/>
<path fill-rule="evenodd" clip-rule="evenodd" fill="#2B2B63" d="M410.246,300.61c-4.882,0.019-8.826-3.887-8.86-8.772
	c-0.034-4.896,3.93-8.889,8.825-8.89c4.856-0.001,8.828,3.963,8.837,8.82C419.057,296.635,415.119,300.591,410.246,300.61z
	 M410.22,296.906c2.812-0.007,5.119-2.308,5.125-5.113c0.006-2.819-2.348-5.156-5.183-5.146c-2.785,0.01-5.089,2.356-5.073,5.167
	C405.104,294.637,407.397,296.913,410.22,296.906z"/>
</svg>
