<?xml version="1.0" encoding="utf-8"?>
<!-- Generator: Adobe Illustrator 16.0.0, SVG Export Plug-In . SVG Version: 6.00 Build 0)  -->
<!DOCTYPE svg PUBLIC "-//W3C//DTD SVG 1.1//EN" "http://www.w3.org/Graphics/SVG/1.1/DTD/svg11.dtd">
<svg version="1.1" id="Layer_1" xmlns="http://www.w3.org/2000/svg" xmlns:xlink="http://www.w3.org/1999/xlink" x="0px" y="0px"
	 width="100.062px" height="100.062px" viewBox="255.969 345.969 100.062 100.062"
	 enable-background="new 255.969 345.969 100.062 100.062" xml:space="preserve">
<g>
	<path fill="#AD2938" d="M311.101,434.396c-3.399,0-6.8,0-10.199,0c-1.299-0.599-1.781-1.626-1.66-3.021
		c0.061-0.694,0.04-1.4-0.008-2.097c-0.015-0.207-0.203-0.505-0.387-0.582c-1.631-0.679-3.277-1.318-5.062-2.025
		c-0.592,0.618-1.268,1.354-1.976,2.056c-1.077,1.067-2.359,1.063-3.439-0.009c-2.039-2.025-4.071-4.058-6.097-6.097
		c-1.065-1.073-1.061-2.361,0.009-3.438c0.702-0.706,1.431-1.387,2.038-1.975c-0.706-1.785-1.344-3.434-2.022-5.064
		c-0.076-0.182-0.379-0.366-0.586-0.377c-0.822-0.043-1.648-0.014-2.474-0.02c-1.557-0.01-2.477-0.916-2.481-2.461
		c-0.007-2.574-0.002-5.147-0.002-7.722c0-0.871,0-1.742,0-2.649c-0.936-0.242-1.829-0.455-2.711-0.707
		c-1.18-0.336-1.779-1.134-1.785-2.367c-0.011-2.149-0.012-4.299,0-6.447c0.008-1.455,0.939-2.375,2.399-2.391
		c0.794-0.009,1.589-0.002,2.4-0.002c1.76-9.599,6.841-16.784,15.336-21.585c-0.31-0.702-0.634-1.373-0.906-2.064
		c-0.492-1.246-0.038-2.546,1.21-2.974c2.329-0.799,4.688-1.53,7.069-2.151c1.342-0.35,2.754-0.424,4.135-0.623
		c1.399,0,2.799,0,4.199,0c0.218,0.044,0.435,0.112,0.654,0.129c3.593,0.264,7.035,1.138,10.347,2.541
		c1.491,0.632,1.956,1.787,1.322,3.281c-0.261,0.615-0.536,1.226-0.813,1.857c8.49,4.805,13.57,11.99,15.331,21.589
		c0.787,0,1.556-0.004,2.325,0.001c1.556,0.01,2.473,0.914,2.479,2.464c0.008,2.099,0.008,4.198,0,6.297
		c-0.005,1.331-0.575,2.094-1.855,2.465c-0.857,0.248-1.727,0.457-2.642,0.697c0,0.299,0,0.569,0,0.841
		c0,3.148,0.003,6.297-0.002,9.445c-0.002,1.646-0.9,2.53-2.558,2.537c-0.8,0.003-1.601-0.025-2.397,0.019
		c-0.207,0.012-0.511,0.195-0.587,0.377c-0.679,1.631-1.316,3.278-2.026,5.074c0.606,0.583,1.339,1.26,2.041,1.966
		c1.069,1.075,1.076,2.363,0.01,3.44c-2.022,2.041-4.056,4.072-6.096,6.096c-1.082,1.073-2.366,1.07-3.44,0.006
		c-0.709-0.701-1.394-1.428-1.988-2.038c-1.793,0.705-3.465,1.351-5.12,2.032c-0.161,0.066-0.308,0.361-0.318,0.558
		c-0.039,0.698-0.065,1.403-0.005,2.098C312.882,432.771,312.396,433.796,311.101,434.396z M296.595,363.713
		c0.096,0.232,0.167,0.417,0.247,0.597c2.208,4.944,4.42,9.886,6.62,14.833c0.591,1.327,0.137,2.641-1.054,3.165
		c-1.191,0.525-2.445-0.025-3.051-1.354c-0.548-1.203-1.081-2.414-1.621-3.621c-1.152-2.57-2.305-5.141-3.488-7.781
		c-6.794,3.965-10.94,9.744-12.596,17.403c16.261,0,32.438,0,48.697,0c-1.67-7.673-5.81-13.445-12.594-17.405
		c-0.491,1.094-0.942,2.093-1.391,3.093c-1.253,2.802-2.499,5.606-3.762,8.403c-0.455,1.009-1.332,1.536-2.312,1.447
		c-0.951-0.086-1.834-0.803-1.959-1.78c-0.068-0.536,0.041-1.155,0.257-1.655c1.227-2.841,2.509-5.656,3.772-8.48
		c1.017-2.274,2.033-4.55,3.051-6.826C310.477,361.748,302.744,361.413,296.595,363.713z M281.291,407.249
		c0.854,0,1.672-0.008,2.49,0.002c1.302,0.015,2.128,0.646,2.405,1.919c0.533,2.442,1.487,4.701,2.83,6.807
		c0.764,1.197,0.652,2.168-0.357,3.168c-0.581,0.574-1.216,1.095-1.711,1.536c1.187,1.192,2.218,2.229,3.324,3.34
		c0.21-0.24,0.465-0.548,0.738-0.839c0.291-0.31,0.593-0.608,0.899-0.902c0.957-0.918,1.924-1.048,3.054-0.33
		c2.129,1.351,4.405,2.322,6.872,2.865c1.278,0.282,1.898,1.103,1.913,2.409c0.01,0.868,0.002,1.736,0.002,2.626
		c1.533,0,2.99,0,4.5,0c0-0.893-0.006-1.738,0.001-2.584c0.012-1.355,0.645-2.176,1.946-2.458c2.393-0.52,4.609-1.453,6.678-2.757
		c1.36-0.856,2.246-0.75,3.396,0.412c0.537,0.543,1.033,1.127,1.481,1.619c1.175-1.164,2.2-2.181,3.291-3.262
		c-0.538-0.527-1.113-1.075-1.672-1.64c-1.034-1.044-1.159-1.996-0.374-3.228c1.329-2.085,2.272-4.321,2.807-6.737
		c0.294-1.324,1.096-1.952,2.442-1.965c0.815-0.008,1.631-0.002,2.461-0.002c0-2.477,0-4.863,0-7.255
		c-3.105,0.548-6.172,1.087-9.295,1.638c0.9,4.781,0.006,9.17-2.994,13.012s-7.001,5.891-11.871,6.081
		c-4.32,0.168-8.134-1.25-11.268-4.226c-4.28-4.064-5.723-9.103-4.708-14.875c-3.128-0.552-6.191-1.092-9.281-1.637
		C281.291,402.4,281.291,404.789,281.291,407.249z M335.188,391.548c-19.488,0-38.936,0-58.389,0c0,0.935,0,1.822,0,2.8
		c3.026,0.629,6.019,1.296,9.029,1.865c6.02,1.14,12.091,1.882,18.22,2.009c9.771,0.202,19.362-1.217,28.857-3.397
		c0.771-0.177,1.85-0.184,2.203-0.683c0.393-0.554,0.116-1.581,0.129-2.402C335.239,391.693,335.215,391.646,335.188,391.548z
		 M295.163,402.124c-1.29,4.503,0.562,9.437,4.479,12.146c3.952,2.734,9.211,2.623,13.104-0.277
		c3.645-2.715,5.397-7.744,4.075-11.853C309.627,402.93,302.406,402.96,295.163,402.124z"/>
</g>
</svg>
