<?xml version="1.0" encoding="utf-8"?>
<!-- Generator: Adobe Illustrator 16.0.0, SVG Export Plug-In . SVG Version: 6.00 Build 0)  -->
<!DOCTYPE svg PUBLIC "-//W3C//DTD SVG 1.1//EN" "http://www.w3.org/Graphics/SVG/1.1/DTD/svg11.dtd">
<svg version="1.1" id="Layer_1" xmlns="http://www.w3.org/2000/svg" xmlns:xlink="http://www.w3.org/1999/xlink" x="0px" y="0px"
	 width="792px" height="612px" viewBox="0 0 792 612" enable-background="new 0 0 792 612" xml:space="preserve">
<g>
	<g>
		<path fill="#1F0C5B" d="M405.792,291.312L405.792,291.312c0,0.612-0.612,0.612-0.612,0.612S405.18,291.924,405.792,291.312z"/>
		<path fill="#1F0C5B" d="M355.608,291.924h-0.612l0,0C354.996,291.924,354.996,291.924,355.608,291.924z"/>
		<path fill="#1F0C5B" d="M530.028,318.852c-7.345,0-14.076,3.673-18.36,9.181v44.063h-9.18v-60.588
			c-2.448-3.672-6.12-6.732-10.404-8.568c-3.06-1.224-6.732-2.448-10.404-2.448h-0.611c-9.181,0-17.748,5.508-22.032,13.464v12.24
			c-1.224,0.611-1.836,1.836-3.061,2.447c-1.836,1.837-3.672,3.061-6.119,4.896v-23.256c-4.896-5.508-11.628-9.18-19.584-9.18
			c-8.568,0-16.524,4.284-20.809,11.016v60.588h-9.18V223.992c-4.896-6.732-12.24-11.016-20.808-11.016s-16.524,4.284-20.808,11.016
			v196.452l-23.256-31.212c-8.568-11.017-24.48-13.465-35.496-5.509c-11.016,8.568-13.464,24.48-5.508,35.496l84.456,113.221
			h130.968l43.452-43.452V341.496C552.672,329.256,542.88,318.852,530.028,318.852z M459.648,372.096h-9.181v-34.271
			c1.836-1.225,3.672-1.836,6.12-3.061c1.225-0.611,1.836-1.224,3.061-1.836V372.096z"/>
		<path fill="#1F0C5B" d="M410.076,288.252v2.448c-1.225,0.612-3.061,0.612-4.284,1.224h-0.612l0.612-0.612
			C407.016,290.7,408.852,289.476,410.076,288.252z"/>
		<path fill="#1F0C5B" d="M355.608,291.924h-0.612c-1.224,0-1.836-0.612-3.06-0.612c-0.612,0-0.612,0-1.224-0.612v-2.448
			c1.224,1.224,3.06,1.836,4.284,3.06C354.996,291.924,354.996,291.924,355.608,291.924z"/>
	</g>
	<path fill="#545758" d="M521.46,217.872c0,6.732,0,12.852-1.224,19.584c-1.225,7.956-3.061,15.3-4.896,23.256
		c-4.284,14.688-11.628,28.764-20.808,40.392c-0.612,0.612-0.612,1.224-1.225,1.836c-3.06-1.224-6.731-2.448-10.403-2.448h-0.612
		c1.836-3.06,3.672-5.508,5.508-8.568c7.344-13.464,12.853-28.764,15.3-44.676c1.225-7.956,1.225-15.912,1.225-23.868
		c0-3.672-0.612-7.344-1.225-11.016c0-2.448-0.611-4.284-1.224-6.732c-0.612-3.672-1.224-6.732-2.448-10.404
		c-0.611-1.836-1.224-3.672-1.836-5.508c-1.836-6.12-4.284-12.24-7.344-17.748c-3.06-6.12-6.732-12.24-11.016-17.748
		c-4.284-5.508-8.568-11.016-14.076-15.912c-2.448-1.836-4.284-4.284-6.732-6.12c-1.224-1.224-3.06-2.448-4.284-3.06
		c-5.508-4.284-11.016-7.344-17.136-11.016c-6.731-3.672-14.076-6.12-20.808-8.568c-4.284-1.224-7.956-2.448-12.24-3.06
		c-3.672-0.612-7.956-1.224-11.628-1.836c-3.06,0-5.508-0.612-8.568-0.612c-1.224,0-2.448,0-3.06,0c-1.224,0-2.448,0-3.672,0
		c-1.836,0-3.672,0-4.896,0c-5.508,0.612-11.016,1.224-15.912,2.448c-4.896,1.224-10.404,2.448-15.3,4.284
		c-7.344,2.448-14.076,5.508-20.808,9.18c-5.508,3.06-10.404,6.732-15.3,10.404c-3.672,3.06-7.344,6.12-11.016,9.792
		c-4.284,4.284-8.568,9.18-12.24,14.076s-7.344,10.404-10.404,16.524c-3.06,4.896-4.896,10.404-6.732,15.912
		c-1.836,4.896-3.06,9.792-4.284,14.688c-0.612,3.672-1.224,7.344-1.836,11.016c0,1.836-0.612,3.672-0.612,5.508s0,4.284-0.612,6.12
		c0,7.344,0,14.688,1.224,21.42c1.224,7.956,3.06,15.3,5.508,23.256c4.896,14.688,12.24,28.764,22.032,41.004
		c8.568,11.016,18.972,20.196,30.6,28.152c4.896,3.06,9.792,6.12,14.688,8.567c-6.12-1.836-12.852-4.283-18.36-7.344
		c-6.732-3.672-13.464-7.344-18.972-11.628c-12.24-9.18-23.256-20.196-31.212-32.436c-8.568-12.852-14.688-26.928-18.972-41.616
		c-1.836-7.956-3.06-15.3-3.672-23.256c-0.612-6.12-0.612-12.852,0-18.972c0.612-6.732,1.224-14.076,3.06-20.808
		c1.224-4.896,2.448-9.18,3.672-14.076c1.836-5.508,3.672-10.404,6.12-15.912c3.06-6.732,6.732-12.852,10.404-18.972
		c4.284-6.12,8.568-12.24,14.076-17.136c3.672-4.284,7.956-7.956,12.24-11.628c2.448-1.836,4.896-4.284,7.344-6.12
		c1.836-1.224,4.284-3.06,6.12-4.284c5.508-3.672,11.016-6.732,17.136-9.792c4.284-1.836,9.18-3.672,14.076-5.508
		c4.896-1.836,10.404-3.06,15.912-4.284c7.344-1.836,15.3-2.448,23.256-3.06c5.508,0,11.016,0,16.524,0
		c3.672,0,7.344,0.612,11.017,1.224c4.283,0.612,8.567,1.224,12.852,2.448c11.628,2.448,22.644,6.732,33.048,12.24
		c5.508,2.448,10.404,5.508,15.3,9.18c3.672,3.06,7.956,5.508,11.017,8.568c5.508,4.896,10.403,9.792,14.688,14.688
		c4.896,5.508,9.181,11.628,12.853,17.748c3.672,5.508,6.731,11.016,9.18,17.136c1.224,2.448,1.836,4.896,3.06,7.344
		c1.225,3.06,1.837,6.12,3.061,9.18c1.224,4.284,2.448,8.568,3.06,13.464C520.236,201.96,520.848,209.916,521.46,217.872z"/>
	<path fill="#545758" d="M322.56,230.112L322.56,230.112L322.56,230.112L322.56,230.112z"/>
	<path fill="#545758" d="M453.528,244.188c-3.672,14.076-12.24,26.316-23.256,35.496c-3.673,3.06-8.568,5.508-12.853,7.956
		c-1.836,1.224-4.284,1.836-6.731,2.448c0,0,0,0-0.612,0v-2.448c0.612-0.612,0.612-0.612,1.224-1.224
		c2.448-1.836,5.508-4.284,7.956-6.732c4.896-5.508,9.18-11.628,12.853-18.36c1.224-2.448,2.447-4.896,3.06-7.956
		c0.612-1.836,1.224-3.06,1.224-4.896c0.612-1.836,0.612-3.06,1.225-4.896c0.612-4.896,0.612-9.792,0.612-15.3l0,0v-0.612
		c0-1.224,0-1.836-0.612-3.06c-0.612-1.836-0.612-3.672-1.225-5.508c-1.224-3.672-2.447-7.344-3.672-11.016
		c-3.06-6.732-7.344-12.852-12.852-18.36c-3.061-2.448-6.12-4.896-9.18-6.732c-3.061-1.836-6.12-3.06-9.181-4.284
		c-3.672-1.224-7.344-2.448-11.628-3.06c-2.448-0.612-4.284-0.612-6.732-0.612c-1.224,0-2.448,0-3.672,0l0,0
		c-7.344,0-14.076,1.224-20.808,4.284c-0.612,0-1.224,0.612-1.836,0.612c-2.448,1.224-4.896,2.448-7.344,3.672
		c-1.836,1.224-4.284,2.448-6.12,4.284c-10.404,8.568-17.748,20.196-20.808,33.66c-0.612,1.836-0.612,3.06-0.612,4.896
		c0,0.612,0,1.224,0,1.836c0,0.612,0,1.224,0,1.836c0,3.06-0.612,6.12,0,9.18c0.612,3.672,1.224,7.344,1.836,11.016
		c1.836,7.344,4.896,14.688,9.792,20.808c1.224,2.448,3.06,4.284,4.896,6.12c1.836,1.836,3.06,3.672,4.896,5.508
		s4.284,3.672,6.12,4.896c0,0,0,0,0.612,0v2.448c-1.224-0.612-2.448-0.612-3.672-1.224c-1.836-0.612-3.672-1.224-4.896-2.448
		c-0.612-0.612-1.836-0.612-2.448-1.224c-0.612-0.612-1.836-1.224-2.448-1.224c-3.06-2.448-6.12-4.284-9.18-6.732
		c-2.448-2.448-4.896-4.896-6.732-7.344c-2.448-2.448-4.284-5.508-6.12-8.568c-1.836-3.06-3.672-6.732-4.896-9.792
		c-1.224-3.672-2.448-7.344-3.06-11.016c-0.612-1.836-0.612-3.672-1.224-5.508c0-1.224,0-2.448-0.612-4.284c0-1.836,0-4.284,0-6.12
		c0-3.06,0-6.732,0.612-9.792c0.612-3.672,1.224-7.956,2.448-11.628s2.448-7.344,4.284-11.016
		c4.896-9.18,11.016-17.136,18.972-23.868c6.12-4.896,12.24-8.568,19.584-11.628c11.016-4.284,22.644-6.732,34.272-5.508
		c6.12,0.612,12.852,1.836,18.972,3.672c5.508,1.836,10.404,4.284,15.3,6.732c2.448,1.224,4.896,3.06,6.732,4.284
		c2.447,1.836,4.284,3.672,6.731,5.508c4.284,3.672,7.956,8.568,11.017,12.852c4.283,6.732,7.344,13.464,9.792,20.808
		C456.588,218.484,456.588,231.948,453.528,244.188z"/>
	<path fill="#545758" d="M355.608,291.924h-0.612c-1.224,0-1.836-0.612-3.06-0.612c-0.612,0-0.612,0-1.224-0.612v-2.448
		c1.224,1.224,3.06,1.836,4.284,3.06C354.996,291.924,354.996,291.924,355.608,291.924z"/>
	<path fill="#545758" d="M410.076,288.252v2.448c-1.225,0.612-3.061,0.612-4.284,1.224h-0.612l0.612-0.612
		C407.016,290.7,408.852,289.476,410.076,288.252z"/>
</g>
</svg>
